<?xml version="1.0" encoding="utf-8"?>
<!-- Generator: Adobe Illustrator 27.0.0, SVG Export Plug-In . SVG Version: 6.00 Build 0)  -->
<svg version="1.1" id="Layer_1" xmlns="http://www.w3.org/2000/svg" xmlns:xlink="http://www.w3.org/1999/xlink" x="0px" y="0px"
	 viewBox="0 0 145.1 150.1" style="enable-background:new 0 0 145.1 150.1;" xml:space="preserve">
<style type="text/css">
	.st0{fill:#231F20;}
</style>
<g>
	<g>
		<g>
			<path class="st0" d="M61.8,127.7c-0.1-1.2-1.2-2.7-2.3-4.1c-1.1-1.4-2.3-2.7-3-3.6c-0.9-1.3-2.3-2.5-3-3.8
				c-0.2-0.3-0.4-1.4-0.7-2.3c-0.2-0.9-0.4-1.7-0.7-1.6c0,0-0.1,0-0.2,0.1c-0.1,0-0.2,0.1-0.2,0.2c0,0,0,0,0,0
				c-1.7,1.8-3.5,3.6-5.1,5.6c-2.1-1.6-3.8-3.6-4.5-6.1c-0.7-2.4-0.1-5.2,1.2-7.6c1.3-2.4,3.2-4.5,5.2-6.5c2-1.9,4.3-3.7,6.5-5.3
				c7.2-5,15-8.9,22.6-13.3c3.8-2.2,7.6-4.5,11.2-7.2c1.8-1.4,3.5-2.8,5.2-4.5c0.8-0.8,1.6-1.7,2.3-2.7c0.7-1,1.4-2,1.9-3.2
				c0.5-1.1,0.9-2.4,1.1-3.7c0.2-1.3,0.1-2.7-0.2-4c-0.5-2.6-1.9-4.8-3.5-6.6c-1.6-1.8-3.4-3.2-5.2-4.5c-1.9-1.3-3.8-2.4-5.7-3.3
				c-3.9-2-8-3.5-12-4.9c-4.1-1.4-8.1-2.7-12.2-3.9C53,28.7,45.1,25.6,37,23.4c-8-2.2-16.2-3.5-24.1-2c-1.6,0.3-1.4,2.5,0.2,2.5
				c8.4-0.2,16.7,1.4,24.8,3.6c8.1,2.2,16.1,5,24,7.5c4,1.3,8,2.6,11.9,4c3.9,1.5,7.8,3.1,11.4,5.1c1.8,1,3.5,2.1,5.1,3.4
				c1.6,1.3,3,2.7,4,4.4c1,1.6,1.6,3.5,1.4,5.4c-0.1,1.9-0.9,3.7-2,5.4c-2.2,3.2-5.4,5.9-8.7,8.2c-3.3,2.4-6.9,4.5-10.4,6.5
				c-7.2,4.1-14.6,7.9-21.7,12.7c-2.4,1.6-4.7,3.3-7,5.3c-2.3,2-4.5,4.2-6.3,7.1c-0.9,1.5-1.7,3.1-2.1,5c-0.4,1.9-0.4,3.9,0.1,5.8
				c0.2,1,0.6,1.8,1,2.7c0.5,0.8,0.9,1.6,1.5,2.3c1.1,1.4,2.4,2.6,3.7,3.5c-0.4,0.6-0.8,1.2-1.1,1.8c-0.8,1.4-2.2,2.8-1.2,4.2
				c0.2,0.3,0.6,0.6,1.1,0.9c2.4,1.3,5.8,1,8,1c0.6,0,3.5,0.1,6.1-0.3C59.5,129.1,61.8,128.4,61.8,127.7z"/>
		</g>
	</g>
</g>
</svg>
