<?xml version="1.0" encoding="UTF-8"?>
<svg width="500px" height="500px" viewBox="0 0 500 500" version="1.1" xmlns="http://www.w3.org/2000/svg" xmlns:xlink="http://www.w3.org/1999/xlink">
    <title>Line Arrow 7</title>
    <g id="Line-Arrow-7" stroke="none" stroke-width="1" fill="none" fill-rule="evenodd">
        <path d="M429.169454,15.5417131 C421.884454,17.0157131 416.080454,18.1417131 410.299454,19.3777131 C406.718454,20.1407131 403.177454,21.0867131 399.609454,21.9077131 C396.172454,22.6987131 392.673454,23.1287131 391.671454,18.5747131 C390.828454,14.7397131 393.641454,12.9977131 396.686454,12.3577131 C411.986454,9.14171308 427.314454,6.03271308 442.679454,3.13471308 C446.579454,2.39971308 449.014454,4.73471308 449.610454,8.61671308 C450.010454,11.2417131 450.160454,13.9107131 450.328454,16.5657131 C451.061787,28.1797131 451.78012,39.7943797 452.483454,51.4097131 C452.524454,52.0717131 452.731454,52.7247131 452.759454,53.3857131 C452.886454,56.3007131 452.145454,59.3577131 448.867454,59.1107131 C446.829454,58.9567131 443.736454,56.7757131 443.259454,54.9457131 C441.845454,49.5167131 441.382454,43.8227131 440.759454,38.2087131 C440.259454,33.7007131 440.069454,29.1587131 438.759454,24.5087131 C429.518454,37.7277131 425.459454,52.2977131 428.573454,68.1317131 C430.356454,77.2127131 433.532454,86.0977131 436.834454,94.7837131 C442.746454,110.338713 449.915454,125.443713 455.256454,141.183713 C459.608253,154.081035 462.886089,167.316132 465.056454,180.753713 C466.301454,188.406713 465.340454,196.769713 463.725454,204.466713 C459.873454,222.814713 446.779454,232.866713 428.007454,232.893713 C415.735454,232.908713 404.424454,229.059713 393.702454,223.415713 C377.637454,214.959713 363.759454,203.633713 351.216454,190.589713 C349.722454,189.035713 347.988454,187.712713 344.644454,184.766713 C346.061454,190.046713 346.644454,193.255713 347.773454,196.266713 C357.205454,221.52138 366.693454,246.754713 376.237454,271.966713 C381.867454,286.916713 388.152454,301.666713 392.902454,316.887713 C396.246454,327.602713 398.027454,338.898713 399.518454,350.066713 C400.679176,358.379202 399.357132,366.84933 395.718454,374.412713 C388.743454,388.896713 376.331454,395.283713 360.535454,392.298713 C346.609454,389.666713 335.422454,381.838713 325.092454,372.798713 C308.923454,358.647713 296.446454,341.384713 284.842454,323.456713 C281.835454,318.810713 278.822454,314.168713 273.942454,310.013713 C273.951454,313.480713 273.560454,317.003713 274.033454,320.405713 C277.239454,343.469713 280.233454,366.573713 284.089454,389.531713 C286.957454,406.592713 291.255454,423.408713 294.461454,440.418713 C296.077911,448.918737 297.094088,457.521995 297.502454,466.164713 C297.751039,471.801669 297.083364,477.441616 295.525454,482.864713 C292.268454,494.018713 283.715454,499.417713 272.503454,496.323713 C264.565729,493.960028 257.046289,490.370023 250.217454,485.683713 C233.649454,474.675713 221.174454,459.370713 209.365454,443.644713 C199.578454,430.612713 190.616454,416.962713 180.831454,403.929713 C175.960798,397.200921 170.399159,391.000468 164.237454,385.429713 C155.537454,377.864713 148.961454,380.162713 146.204454,391.465713 C144.69373,397.940573 143.994028,404.578167 144.121454,411.225713 C144.254454,422.525713 145.359454,433.818713 145.852454,445.125713 C146.126454,451.430713 146.588454,457.818713 145.912454,464.054713 C144.367454,478.305713 135.059454,485.233713 120.863454,482.795713 C115.613724,481.917873 110.515408,480.298344 105.721454,477.985713 C78.9185237,464.913817 56.4328448,444.420417 40.9374537,418.941713 C38.2707906,414.346051 36.0957833,409.482199 34.4484537,404.430713 C33.4014537,401.478713 34.0724537,398.248713 37.6914537,397.117713 C41.6504537,395.880713 42.6314537,398.860713 43.9564537,401.753713 C58.3244537,433.127713 82.2164537,455.013713 113.234454,468.997713 C130.318454,476.697713 135.953454,472.369713 135.280454,453.807713 C134.786454,440.174713 133.107454,426.558713 133.160454,412.939713 C133.075282,403.653225 134.290061,394.400503 136.769454,385.450713 C141.469454,369.530713 155.584454,365.091713 168.848454,375.205713 C175.631635,380.558715 181.683266,386.778447 186.848454,393.705713 C197.774454,407.954713 207.423454,423.196713 218.580454,437.249713 C228.146202,449.169395 238.423605,460.500051 249.356454,471.179713 C254.682454,476.434713 261.545454,480.567713 268.391454,483.748713 C279.867454,489.081713 285.547454,485.510713 286.361454,473.004713 C286.787207,466.694507 286.480159,460.356218 285.446454,454.116713 C282.820454,438.698713 279.331454,423.428713 276.627454,408.022713 C272.141454,382.460713 267.808454,356.867713 263.833454,331.222713 C262.719454,324.034713 262.915454,316.622713 262.852454,309.304713 C262.80814,305.976175 263.246017,302.658758 264.152454,299.455713 C266.330454,292.016713 273.486454,289.914713 278.652454,295.638713 C283.517454,301.027713 287.499454,307.275713 291.452454,313.412713 C302.107454,329.945713 313.217454,346.119713 327.384454,359.903713 C335.759454,368.052713 344.650454,375.503713 355.922454,379.589713 C373.911454,386.115713 386.598454,378.695713 388.213454,359.583713 C388.930907,351.632576 388.337679,343.617584 386.457454,335.858713 C382.863366,322.015779 378.523703,308.37722 373.457454,295.002713 C362.969454,266.943713 351.768454,239.151713 341.115454,211.153713 C338.042454,203.077713 335.751454,194.697713 333.280454,186.403713 C332.142454,182.583713 331.345454,178.653713 330.556454,174.740713 C329.667454,170.340713 329.372454,165.691713 333.908454,163.183713 C338.693454,160.537713 342.136454,163.983713 345.118454,167.173713 C350.567454,173.005713 355.573454,179.266713 361.193454,184.920713 C374.163454,197.968713 387.963454,210.130713 405.526454,216.585713 C412.948749,219.437417 420.761226,221.1449 428.696454,221.649713 C441.659454,222.221713 449.745454,215.111713 453.016454,202.472713 C455.52734,193.082401 455.596185,183.206117 453.216454,173.781713 C449.816454,160.611713 445.667454,147.581713 441.016454,134.797713 C435.329454,119.165713 428.800454,103.839713 422.616454,88.3887131 C413.216454,64.8887131 414.916454,42.1887131 427.391454,20.2197131 C428.066588,18.6929843 428.660092,17.131448 429.169454,15.5417131 Z" id="Path" fill="#000000" fill-rule="nonzero"></path>
    </g>
</svg>