<?xml version="1.0" encoding="utf-8"?>
<!-- Generator: Adobe Illustrator 27.0.0, SVG Export Plug-In . SVG Version: 6.00 Build 0)  -->
<svg version="1.1" id="Layer_1" xmlns="http://www.w3.org/2000/svg" xmlns:xlink="http://www.w3.org/1999/xlink" x="0px" y="0px"
	 viewBox="0 0 121.2 122.9" style="enable-background:new 0 0 121.2 122.9;" xml:space="preserve">
<style type="text/css">
	.st0{fill-rule:evenodd;clip-rule:evenodd;fill:#FD6115;}
</style>
<g>
	<path class="st0" d="M50.4,4.9c23.9,7.1,44,23.5,56.8,44c6.3,10.2,10.5,20.5,12.8,31.5l-40.3,40.3c-10.8-1.7-21-5.2-31.2-11.2
		c-23-13.6-37.8-36.2-44.6-58L50.4,4.9L50.4,4.9z M44.4,41.4l4.9,4.9l2.8-2.8c1.2-1.2,3.2-1.2,4.3,0l0,0c1.2,1.2,1.2,3.2,0,4.3
		l-2.8,2.8l4.9,4.9l2.8-2.8c1.2-1.2,3.2-1.2,4.3,0l0,0c1.2,1.2,1.2,3.2,0,4.3L63,60l4.9,4.9l2.8-2.8c1.2-1.2,3.2-1.2,4.3,0l0,0
		c1.2,1.2,1.2,3.1,0,4.3l-2.8,2.8l4.9,4.9l2.8-2.8c1.2-1.2,3.2-1.2,4.3,0l0,0c1.2,1.2,1.2,3.2,0,4.3l-2.8,2.8l4.9,4.9l2.8-2.8
		c1.2-1.2,3.1-1.2,4.3,0l0,0c1.2,1.2,1.2,3.2,0,4.3L83.1,95.6c-1.2,1.2-3.2,1.2-4.3,0l0,0c-1.2-1.2-1.2-3.2,0-4.3l3.2-3.2L77,83.1
		l-3.2,3.2c-1.2,1.2-3.2,1.2-4.3,0l0,0c-1.2-1.2-1.2-3.2,0-4.3l3.2-3.2l-4.9-4.9L64.5,77c-1.2,1.2-3.2,1.2-4.3,0l0,0
		c-1.2-1.2-1.2-3.2,0-4.3l3.2-3.2l-4.9-4.9l-3.2,3.2c-1.2,1.2-3.2,1.2-4.3,0l0,0c-1.2-1.2-1.2-3.2,0-4.3l3.2-3.2l-4.9-4.9l-3.2,3.2
		c-1.2,1.2-3.2,1.2-4.3,0l0,0c-1.2-1.2-1.2-3.2,0-4.3l3.2-3.2L39.9,46l-3.2,3.2c-1.2,1.2-3.2,1.2-4.3,0l0,0c-1.2-1.2-1.2-3.2,0-4.3
		l10.6-10.5c1.2-1.2,3.2-1.2,4.3,0l0,0c1.2,1.2,1.2,3.2,0,4.3L44.4,41.4L44.4,41.4z M121.8,94.9c0.2,3,0.2,6.1,0.2,9.2
		c-0.1,7.2-1,11.4-3.6,14c-2.6,2.6-6.9,3.4-13.9,3.8c-3.3,0.2-6.6,0.2-9.8,0.1L121.8,94.9L121.8,94.9z M0.6,38.3
		C-1.5,26.1-2.2,10.7,4.9,4.8c6.2-5,20.8-4.5,32-2.8L0.6,38.3L0.6,38.3z"/>
</g>
</svg>
