<svg xmlns="http://www.w3.org/2000/svg" class="svg-inline icon-Instagram" viewBox="0 0 25.72 25.72"><defs><style>.cls-29{fill:none;stroke:#1f304f;stroke-miterlimit:10;stroke-width:1px;}.cls-28{fill:#1f304f;}</style></defs><g data-name="Layer 2"><g data-name="Layer 1"><path d="M25.22,12.86A12.36,12.36,0,1,1,12.86.5,12.36,12.36,0,0,1,25.22,12.86Z" class="cls-29"/><path d="M17.12,15.18a1.94,1.94,0,0,1-1.94,1.94H10.54a2,2,0,0,1-1.95-1.94V10.54A2,2,0,0,1,10.54,8.6h4.64a1.94,1.94,0,0,1,1.94,1.94Zm-1.94-7.5H10.54a2.86,2.86,0,0,0-2.86,2.86v4.64A2.86,2.86,0,0,0,10.54,18h4.64A2.86,2.86,0,0,0,18,15.18V10.54a2.86,2.86,0,0,0-2.86-2.86" class="cls-28"/><path d="M12.86 14.61a1.75 1.75 0 1 1 1.75-1.75 1.75 1.75 0 0 1-1.75 1.75m0-4.42a2.67 2.67 0 1 0 2.67 2.67 2.67 2.67 0 0 0-2.67-2.67M15.64 9.41a.67.67 0 0 0-.48.2.68.68 0 0 0-.19.47.71.71 0 0 0 .19.48.68.68 0 0 0 1 0 .71.71 0 0 0 .19-.48.68.68 0 0 0-.19-.47.67.67 0 0 0-.48-.2" class="cls-28"/></g></g></svg>